<svg xmlns="http://www.w3.org/2000/svg" xmlns:xlink="http://www.w3.org/1999/xlink" width="500" zoomAndPan="magnify" viewBox="0 0 375 374.999991" height="500" preserveAspectRatio="xMidYMid meet" version="1.0"><defs><g/><clipPath id="290e0ae39f"><path d="M 118.277344 79.890625 L 257 79.890625 L 257 211.921875 L 118.277344 211.921875 Z M 118.277344 79.890625 " clip-rule="nonzero"/></clipPath><clipPath id="0cf1b46a30"><path d="M 135.527344 79.890625 L 239.472656 79.890625 C 244.046875 79.890625 248.433594 81.707031 251.667969 84.941406 C 254.902344 88.175781 256.722656 92.566406 256.722656 97.140625 L 256.722656 194.085938 C 256.722656 198.664062 254.902344 203.050781 251.667969 206.285156 C 248.433594 209.519531 244.046875 211.335938 239.472656 211.335938 L 135.527344 211.335938 C 130.953125 211.335938 126.566406 209.519531 123.332031 206.285156 C 120.097656 203.050781 118.277344 198.664062 118.277344 194.085938 L 118.277344 97.140625 C 118.277344 92.566406 120.097656 88.175781 123.332031 84.941406 C 126.566406 81.707031 130.953125 79.890625 135.527344 79.890625 " clip-rule="nonzero"/></clipPath><clipPath id="d8c31dc556"><path d="M 156 103.136719 L 192 103.136719 L 192 130 L 156 130 Z M 156 103.136719 " clip-rule="nonzero"/></clipPath><clipPath id="72c2255ddd"><path d="M 226 157 L 239.085938 157 L 239.085938 168 L 226 168 Z M 226 157 " clip-rule="nonzero"/></clipPath><clipPath id="71a52a05dd"><path d="M 226 176 L 239.085938 176 L 239.085938 187 L 226 187 Z M 226 176 " clip-rule="nonzero"/></clipPath></defs><g clip-path="url(#290e0ae39f)"><g clip-path="url(#0cf1b46a30)"><path fill="#00025d" d="M 118.277344 79.890625 L 257.003906 79.890625 L 257.003906 211.316406 L 118.277344 211.316406 Z M 118.277344 79.890625 " fill-opacity="1" fill-rule="nonzero"/></g></g><path fill="#ff66c4" d="M 173.652344 119.449219 L 213.914062 119.449219 C 216.5625 119.449219 218.726562 121.613281 218.726562 124.246094 C 218.726562 126.882812 216.5625 129.035156 213.914062 129.035156 L 198.515625 129.035156 C 195.863281 129.035156 193.699219 131.183594 193.699219 133.820312 C 193.699219 136.453125 195.863281 138.605469 198.515625 138.605469 L 210.378906 138.605469 C 213.03125 138.605469 215.195312 140.765625 215.195312 143.402344 C 215.195312 146.039062 213.03125 148.1875 210.378906 148.1875 L 195.375 148.1875 C 192.726562 148.1875 190.554688 150.339844 190.554688 152.976562 C 190.554688 155.609375 192.726562 157.769531 195.375 157.769531 L 216.484375 157.769531 C 219.136719 157.769531 221.308594 159.921875 221.308594 162.558594 C 221.308594 165.191406 219.136719 167.34375 216.484375 167.34375 L 205.910156 167.34375 C 203.261719 167.34375 201.097656 169.503906 201.097656 172.128906 C 201.097656 174.765625 203.261719 176.925781 205.910156 176.925781 L 212.105469 176.925781 C 214.753906 176.925781 216.917969 179.078125 216.917969 181.710938 C 216.917969 184.347656 214.753906 186.5 212.105469 186.5 L 201.441406 186.5 C 201.328125 186.5 201.230469 186.5 201.117188 186.488281 C 199.109375 186.535156 196.738281 186.480469 193.953125 186.480469 L 153.363281 186.480469 C 139.6875 186.480469 135.558594 187.882812 138.40625 172.042969 L 147.855469 119.449219 Z M 158.550781 123.015625 C 161.402344 123.015625 163.707031 125.308594 163.707031 128.144531 C 163.707031 130.976562 161.402344 133.269531 158.550781 133.269531 C 155.714844 133.269531 153.40625 130.976562 153.40625 128.144531 C 153.40625 125.308594 155.714844 123.015625 158.550781 123.015625 Z M 188.753906 123.015625 C 191.605469 123.015625 193.910156 125.308594 193.910156 128.144531 C 193.910156 130.976562 191.605469 133.269531 188.753906 133.269531 C 185.917969 133.269531 183.609375 130.976562 183.609375 128.144531 C 183.609375 125.308594 185.917969 123.015625 188.753906 123.015625 Z M 188.753906 123.015625 " fill-opacity="1" fill-rule="evenodd"/><path fill="#cb6ce6" d="M 198.855469 148.1875 L 195.382812 148.1875 C 192.730469 148.1875 190.558594 150.335938 190.558594 152.972656 C 190.558594 155.609375 192.730469 157.769531 195.382812 157.769531 L 216.488281 157.769531 C 219.140625 157.769531 221.3125 159.921875 221.3125 162.554688 C 221.3125 165.191406 219.140625 167.339844 216.488281 167.339844 L 205.910156 167.339844 C 203.261719 167.339844 201.097656 169.503906 201.097656 172.128906 C 201.097656 174.761719 203.261719 176.925781 205.910156 176.925781 L 212.105469 176.925781 C 214.753906 176.925781 216.917969 179.074219 216.917969 181.710938 C 216.917969 184.34375 214.753906 186.496094 212.105469 186.496094 L 201.441406 186.496094 C 201.328125 186.496094 201.230469 186.496094 201.117188 186.488281 C 199.109375 186.53125 196.738281 186.476562 193.953125 186.476562 L 153.363281 186.476562 C 139.6875 186.476562 135.558594 187.882812 138.40625 172.042969 L 147.855469 119.449219 C 153.265625 146.441406 179.867188 148.1875 198.855469 148.1875 Z M 198.855469 148.1875 " fill-opacity="1" fill-rule="evenodd"/><path fill="#8c52ff" d="M 205.316406 167.382812 C 202.941406 167.667969 201.097656 169.699219 201.097656 172.125 C 201.097656 174.757812 203.261719 176.921875 205.914062 176.921875 L 212.105469 176.921875 C 214.757812 176.921875 216.921875 179.070312 216.921875 181.707031 C 216.921875 184.339844 214.757812 186.492188 212.105469 186.492188 L 201.441406 186.492188 C 201.332031 186.492188 201.230469 186.492188 201.121094 186.484375 C 199.113281 186.527344 196.738281 186.472656 193.957031 186.472656 L 153.363281 186.472656 C 139.6875 186.472656 135.558594 187.878906 138.40625 172.039062 L 147.855469 119.449219 C 152.46875 155.472656 166.402344 167.382812 205.316406 167.382812 Z M 205.316406 167.382812 " fill-opacity="1" fill-rule="evenodd"/><path fill="#5e17eb" d="M 205.910156 176.921875 L 212.105469 176.921875 C 214.753906 176.921875 216.917969 179.074219 216.917969 181.707031 C 216.917969 184.34375 214.753906 186.496094 212.105469 186.496094 L 201.441406 186.496094 C 201.328125 186.496094 201.230469 186.496094 201.117188 186.484375 C 199.109375 186.53125 196.738281 186.472656 193.953125 186.472656 L 153.363281 186.472656 C 139.6875 186.472656 135.558594 187.878906 138.40625 172.039062 L 147.855469 119.449219 C 146.917969 134.914062 145.183594 167.292969 163.421875 173.167969 C 178.6875 178.085938 205.910156 176.921875 205.910156 176.921875 Z M 205.910156 176.921875 " fill-opacity="1" fill-rule="evenodd"/><g clip-path="url(#d8c31dc556)"><path fill="#5e17eb" d="M 172.75 103.140625 L 174.570312 103.140625 C 183.65625 103.140625 191.078125 110.527344 191.078125 119.550781 C 191.078125 124.140625 191.078125 122.578125 191.078125 127.167969 C 191.078125 128.429688 190.039062 129.472656 188.757812 129.472656 C 187.488281 129.472656 186.449219 128.429688 186.449219 127.167969 C 186.449219 122.960938 186.449219 124.882812 186.449219 120.679688 C 186.449219 113.6875 180.6875 107.972656 173.65625 107.972656 C 166.625 107.972656 160.871094 113.691406 160.871094 120.679688 C 160.871094 124.886719 160.871094 122.953125 160.871094 127.167969 C 160.871094 128.429688 159.835938 129.472656 158.554688 129.472656 C 157.285156 129.472656 156.246094 128.429688 156.246094 127.167969 C 156.246094 122.578125 156.246094 124.136719 156.246094 119.550781 C 156.246094 110.527344 163.664062 103.140625 172.75 103.140625 Z M 172.75 103.140625 " fill-opacity="1" fill-rule="evenodd"/></g><path fill="#ff66c4" d="M 232.285156 119.449219 L 228.398438 119.449219 C 225.75 119.449219 223.574219 121.613281 223.574219 124.246094 C 223.574219 126.882812 225.75 129.035156 228.398438 129.035156 L 232.285156 129.035156 C 234.933594 129.035156 237.097656 126.882812 237.097656 124.246094 C 237.09375 121.613281 234.933594 119.449219 232.285156 119.449219 Z M 232.285156 119.449219 " fill-opacity="1" fill-rule="evenodd"/><path fill="#ff66c4" d="M 229.578125 138.613281 L 225.691406 138.613281 C 223.042969 138.613281 220.867188 140.765625 220.867188 143.398438 C 220.867188 146.035156 223.042969 148.1875 225.691406 148.1875 L 229.578125 148.1875 C 232.226562 148.1875 234.390625 146.035156 234.390625 143.398438 C 234.390625 140.765625 232.226562 138.613281 229.578125 138.613281 Z M 229.578125 138.613281 " fill-opacity="1" fill-rule="evenodd"/><g clip-path="url(#72c2255ddd)"><path fill="#cb6ce6" d="M 234.976562 157.769531 L 231.101562 157.769531 C 228.453125 157.769531 226.277344 159.921875 226.277344 162.554688 C 226.277344 165.191406 228.453125 167.339844 231.101562 167.339844 L 234.976562 167.339844 C 237.628906 167.339844 239.800781 165.191406 239.800781 162.554688 C 239.800781 159.921875 237.628906 157.769531 234.976562 157.769531 Z M 234.976562 157.769531 " fill-opacity="1" fill-rule="evenodd"/></g><g clip-path="url(#71a52a05dd)"><path fill="#5e17eb" d="M 234.976562 176.921875 L 231.101562 176.921875 C 228.453125 176.921875 226.277344 179.074219 226.277344 181.707031 C 226.277344 184.34375 228.453125 186.496094 231.101562 186.496094 L 234.976562 186.496094 C 237.628906 186.496094 239.800781 184.34375 239.800781 181.707031 C 239.800781 179.074219 237.628906 176.921875 234.976562 176.921875 Z M 234.976562 176.921875 " fill-opacity="1" fill-rule="evenodd"/></g><g fill="#00025d" fill-opacity="1"><g transform="translate(57.493825, 239.533563)"><g><path d="M 2.089844 -19.089844 C 1.015625 -19.089844 0.148438 -18.222656 0.148438 -17.179688 C 0.148438 -16.34375 1.015625 -15.480469 2.089844 -15.480469 L 5.996094 -15.480469 L 5.996094 -1.910156 C 5.996094 -0.835938 6.859375 0 7.933594 0 C 9.007812 0 9.902344 -0.835938 9.902344 -1.910156 L 9.902344 -15.480469 L 13.808594 -15.480469 C 14.882812 -15.480469 15.75 -16.316406 15.75 -17.179688 C 15.75 -18.222656 14.882812 -19.089844 13.808594 -19.089844 Z M 2.089844 -19.089844 "/></g></g></g><g fill="#00025d" fill-opacity="1"><g transform="translate(73.419949, 239.533563)"><g><path d="M 16.285156 -19.148438 C 15.210938 -19.148438 14.316406 -18.3125 14.316406 -17.242188 L 14.316406 -11.335938 L 5.964844 -11.335938 L 5.964844 -17.242188 C 5.964844 -18.3125 5.070312 -19.148438 3.996094 -19.148438 C 2.921875 -19.148438 2.058594 -18.3125 2.058594 -17.242188 L 2.058594 -1.910156 C 2.058594 -0.863281 2.921875 0 3.996094 0 C 5.070312 0 5.964844 -0.863281 5.964844 -1.910156 L 5.964844 -7.753906 L 14.316406 -7.753906 L 14.316406 -1.910156 C 14.316406 -0.863281 15.152344 0 16.226562 0 C 17.300781 0 18.164062 -0.863281 18.164062 -1.910156 L 18.164062 -17.242188 C 18.164062 -18.3125 17.359375 -19.148438 16.285156 -19.148438 Z M 16.285156 -19.148438 "/></g></g></g><g fill="#00025d" fill-opacity="1"><g transform="translate(93.670577, 239.533563)"><g><path d="M 14.046875 0 C 15.09375 0 15.957031 -0.835938 15.957031 -1.910156 C 15.957031 -2.683594 15.09375 -3.578125 14.046875 -3.578125 L 5.964844 -3.578125 L 5.964844 -7.816406 L 12.378906 -7.816406 C 13.480469 -7.816406 14.226562 -8.648438 14.226562 -9.664062 C 14.226562 -10.617188 13.480469 -11.394531 12.378906 -11.394531 L 5.964844 -11.394531 L 5.964844 -15.511719 L 14.046875 -15.511719 C 15.09375 -15.511719 15.957031 -16.34375 15.957031 -17.179688 C 15.957031 -18.222656 15.09375 -19.089844 14.046875 -19.089844 L 3.996094 -19.089844 C 2.894531 -19.089844 2.058594 -18.222656 2.058594 -17.152344 L 2.058594 -1.910156 C 2.058594 -0.863281 2.863281 -0.0898438 3.878906 0 Z M 14.046875 0 "/></g></g></g><g fill="#00025d" fill-opacity="1"><g transform="translate(110.372129, 239.533563)"><g/></g></g><g fill="#00025d" fill-opacity="1"><g transform="translate(117.559762, 239.533563)"><g><path d="M 17.0625 -19.089844 C 15.988281 -19.089844 15.09375 -18.253906 15.09375 -17.179688 L 15.09375 -6.949219 L 5.546875 -18.375 C 4.921875 -19.089844 3.96875 -19.238281 3.222656 -18.941406 C 2.59375 -18.671875 2.058594 -18.015625 2.058594 -17.121094 L 2.058594 -1.910156 C 2.058594 -0.863281 2.921875 0 3.996094 0 C 5.070312 0 5.964844 -0.863281 5.964844 -1.910156 L 5.964844 -12.289062 L 15.660156 -0.746094 C 16.257812 0.03125 17.121094 0.148438 17.777344 -0.121094 C 18.464844 -0.417969 19 -1.105469 19 -1.910156 L 19 -17.179688 C 19 -18.253906 18.136719 -19.089844 17.0625 -19.089844 Z M 17.0625 -19.089844 "/></g></g></g><g fill="#00025d" fill-opacity="1"><g transform="translate(138.615642, 239.533563)"><g><path d="M 10.351562 -7.070312 C 11.453125 -7.070312 12.320312 -7.933594 12.320312 -9.007812 C 12.320312 -10.082031 11.453125 -10.976562 10.351562 -10.976562 L 2.65625 -10.976562 C 1.550781 -10.976562 0.6875 -10.140625 0.6875 -9.007812 C 0.6875 -7.933594 1.550781 -7.070312 2.65625 -7.070312 Z M 10.351562 -7.070312 "/></g></g></g><g fill="#00025d" fill-opacity="1"><g transform="translate(151.618991, 239.533563)"><g><path d="M 2.089844 -19.089844 C 1.015625 -19.089844 0.148438 -18.222656 0.148438 -17.179688 C 0.148438 -16.34375 1.015625 -15.480469 2.089844 -15.480469 L 5.996094 -15.480469 L 5.996094 -1.910156 C 5.996094 -0.835938 6.859375 0 7.933594 0 C 9.007812 0 9.902344 -0.835938 9.902344 -1.910156 L 9.902344 -15.480469 L 13.808594 -15.480469 C 14.882812 -15.480469 15.75 -16.316406 15.75 -17.179688 C 15.75 -18.222656 14.882812 -19.089844 13.808594 -19.089844 Z M 2.089844 -19.089844 "/></g></g></g><g fill="#00025d" fill-opacity="1"><g transform="translate(167.545115, 239.533563)"><g/></g></g><g fill="#00025d" fill-opacity="1"><g transform="translate(174.732748, 239.533563)"><g><path d="M 10.855469 0.269531 C 13.363281 0.269531 15.480469 -0.476562 17.480469 -2.265625 C 18.285156 -2.984375 18.464844 -4.117188 17.867188 -4.953125 C 17.242188 -5.785156 15.957031 -5.695312 15.121094 -5.070312 C 13.929688 -4.027344 12.558594 -3.429688 10.855469 -3.429688 C 7.578125 -3.429688 5.128906 -6.203125 5.128906 -9.542969 C 5.128906 -13.242188 7.785156 -15.6875 10.917969 -15.6875 C 12.558594 -15.6875 13.929688 -15.03125 15.121094 -14.019531 C 15.988281 -13.390625 17.242188 -13.304688 17.867188 -14.136719 C 18.464844 -14.972656 18.285156 -16.078125 17.480469 -16.792969 C 15.480469 -18.613281 13.421875 -19.386719 10.707031 -19.386719 C 5.308594 -19.386719 1.253906 -14.617188 1.253906 -9.515625 C 1.253906 -4.175781 5.609375 0.269531 10.855469 0.269531 Z M 10.855469 0.269531 "/></g></g></g><g fill="#00025d" fill-opacity="1"><g transform="translate(194.178124, 239.533563)"><g><path d="M 11.125 0.269531 C 16.464844 0.269531 21.089844 -4.085938 21.089844 -9.515625 C 21.089844 -14.945312 16.464844 -19.386719 11.125 -19.386719 C 5.726562 -19.386719 1.253906 -14.945312 1.253906 -9.515625 C 1.253906 -4.085938 5.726562 0.269531 11.125 0.269531 Z M 11.125 -3.398438 C 7.695312 -3.398438 5.128906 -5.996094 5.128906 -9.515625 C 5.128906 -13.09375 7.695312 -15.71875 11.125 -15.71875 C 14.585938 -15.71875 17.179688 -13.09375 17.179688 -9.515625 C 17.179688 -5.996094 14.585938 -3.398438 11.125 -3.398438 Z M 11.125 -3.398438 "/></g></g></g><g fill="#00025d" fill-opacity="1"><g transform="translate(216.486617, 239.533563)"><g><path d="M 5.964844 -3.578125 L 5.964844 -17.179688 C 5.964844 -18.253906 5.070312 -19.089844 3.996094 -19.089844 C 2.921875 -19.089844 2.058594 -18.253906 2.058594 -17.179688 L 2.058594 -1.9375 C 2.058594 -0.714844 2.714844 0 3.996094 0 L 13.453125 0 C 14.554688 0 15.359375 -0.863281 15.359375 -1.910156 C 15.359375 -2.683594 14.527344 -3.578125 13.453125 -3.578125 Z M 5.964844 -3.578125 "/></g></g></g><g fill="#00025d" fill-opacity="1"><g transform="translate(232.025026, 239.533563)"><g><path d="M 5.964844 -3.578125 L 5.964844 -17.179688 C 5.964844 -18.253906 5.070312 -19.089844 3.996094 -19.089844 C 2.921875 -19.089844 2.058594 -18.253906 2.058594 -17.179688 L 2.058594 -1.9375 C 2.058594 -0.714844 2.714844 0 3.996094 0 L 13.453125 0 C 14.554688 0 15.359375 -0.863281 15.359375 -1.910156 C 15.359375 -2.683594 14.527344 -3.578125 13.453125 -3.578125 Z M 5.964844 -3.578125 "/></g></g></g><g fill="#00025d" fill-opacity="1"><g transform="translate(247.563435, 239.533563)"><g><path d="M 14.046875 0 C 15.09375 0 15.957031 -0.835938 15.957031 -1.910156 C 15.957031 -2.683594 15.09375 -3.578125 14.046875 -3.578125 L 5.964844 -3.578125 L 5.964844 -7.816406 L 12.378906 -7.816406 C 13.480469 -7.816406 14.226562 -8.648438 14.226562 -9.664062 C 14.226562 -10.617188 13.480469 -11.394531 12.378906 -11.394531 L 5.964844 -11.394531 L 5.964844 -15.511719 L 14.046875 -15.511719 C 15.09375 -15.511719 15.957031 -16.34375 15.957031 -17.179688 C 15.957031 -18.222656 15.09375 -19.089844 14.046875 -19.089844 L 3.996094 -19.089844 C 2.894531 -19.089844 2.058594 -18.222656 2.058594 -17.152344 L 2.058594 -1.910156 C 2.058594 -0.863281 2.863281 -0.0898438 3.878906 0 Z M 14.046875 0 "/></g></g></g><g fill="#00025d" fill-opacity="1"><g transform="translate(264.264976, 239.533563)"><g><path d="M 10.855469 0.269531 C 13.363281 0.269531 15.480469 -0.476562 17.480469 -2.265625 C 18.285156 -2.984375 18.464844 -4.117188 17.867188 -4.953125 C 17.242188 -5.785156 15.957031 -5.695312 15.121094 -5.070312 C 13.929688 -4.027344 12.558594 -3.429688 10.855469 -3.429688 C 7.578125 -3.429688 5.128906 -6.203125 5.128906 -9.542969 C 5.128906 -13.242188 7.785156 -15.6875 10.917969 -15.6875 C 12.558594 -15.6875 13.929688 -15.03125 15.121094 -14.019531 C 15.988281 -13.390625 17.242188 -13.304688 17.867188 -14.136719 C 18.464844 -14.972656 18.285156 -16.078125 17.480469 -16.792969 C 15.480469 -18.613281 13.421875 -19.386719 10.707031 -19.386719 C 5.308594 -19.386719 1.253906 -14.617188 1.253906 -9.515625 C 1.253906 -4.175781 5.609375 0.269531 10.855469 0.269531 Z M 10.855469 0.269531 "/></g></g></g><g fill="#00025d" fill-opacity="1"><g transform="translate(283.710363, 239.533563)"><g><path d="M 2.089844 -19.089844 C 1.015625 -19.089844 0.148438 -18.222656 0.148438 -17.179688 C 0.148438 -16.34375 1.015625 -15.480469 2.089844 -15.480469 L 5.996094 -15.480469 L 5.996094 -1.910156 C 5.996094 -0.835938 6.859375 0 7.933594 0 C 9.007812 0 9.902344 -0.835938 9.902344 -1.910156 L 9.902344 -15.480469 L 13.808594 -15.480469 C 14.882812 -15.480469 15.75 -16.316406 15.75 -17.179688 C 15.75 -18.222656 14.882812 -19.089844 13.808594 -19.089844 Z M 2.089844 -19.089844 "/></g></g></g><g fill="#00025d" fill-opacity="1"><g transform="translate(299.636487, 239.533563)"><g><path d="M 3.996094 0 C 5.070312 0 5.964844 -0.863281 5.964844 -1.910156 L 5.964844 -17.179688 C 5.964844 -18.253906 5.070312 -19.089844 3.996094 -19.089844 C 2.921875 -19.089844 2.058594 -18.253906 2.058594 -17.179688 L 2.058594 -1.910156 C 2.058594 -0.863281 2.921875 0 3.996094 0 Z M 3.996094 0 "/></g></g></g><g fill="#00025d" fill-opacity="1"><g transform="translate(307.659184, 239.533563)"><g><path d="M 11.125 0.269531 C 16.464844 0.269531 21.089844 -4.085938 21.089844 -9.515625 C 21.089844 -14.945312 16.464844 -19.386719 11.125 -19.386719 C 5.726562 -19.386719 1.253906 -14.945312 1.253906 -9.515625 C 1.253906 -4.085938 5.726562 0.269531 11.125 0.269531 Z M 11.125 -3.398438 C 7.695312 -3.398438 5.128906 -5.996094 5.128906 -9.515625 C 5.128906 -13.09375 7.695312 -15.71875 11.125 -15.71875 C 14.585938 -15.71875 17.179688 -13.09375 17.179688 -9.515625 C 17.179688 -5.996094 14.585938 -3.398438 11.125 -3.398438 Z M 11.125 -3.398438 "/></g></g></g><g fill="#00025d" fill-opacity="1"><g transform="translate(329.967677, 239.533563)"><g><path d="M 17.0625 -19.089844 C 15.988281 -19.089844 15.09375 -18.253906 15.09375 -17.179688 L 15.09375 -6.949219 L 5.546875 -18.375 C 4.921875 -19.089844 3.96875 -19.238281 3.222656 -18.941406 C 2.59375 -18.671875 2.058594 -18.015625 2.058594 -17.121094 L 2.058594 -1.910156 C 2.058594 -0.863281 2.921875 0 3.996094 0 C 5.070312 0 5.964844 -0.863281 5.964844 -1.910156 L 5.964844 -12.289062 L 15.660156 -0.746094 C 16.257812 0.03125 17.121094 0.148438 17.777344 -0.121094 C 18.464844 -0.417969 19 -1.105469 19 -1.910156 L 19 -17.179688 C 19 -18.253906 18.136719 -19.089844 17.0625 -19.089844 Z M 17.0625 -19.089844 "/></g></g></g></svg>